<svg xmlns="http://www.w3.org/2000/svg" viewBox="0 0 24 24" fill="none" stroke="#C5C5C5" stroke-width="1.65" stroke-linecap="round" stroke-linejoin="round">
  <path d="M10.8 9.2C10.8 6.4 12.5 4.5 15 4.5l1-2 1.2 2.5 2.5.4-1.8 1.8c1.2 1 1.9 2.5 1.9 4.2 0 2.8-2.2 5-5 5h-2.6"/>
  <path d="M11.2 10.2 5 6.2l1 5-4 1.2 5.3 3.8"/>
  <path d="M12.2 15.7c-1.2 3.8-4.6 5.1-8 2.5 2.7.2 4-1.2 5-3.1"/>
  <path d="M17.8 9.6c1.7.3 2.7-.4 3.5-1.6-.1 1.7.5 2.7 1.7 3.2-1.4.3-2.6.1-3.4-.6"/>
  <circle cx="15.6" cy="8.1" r=".55" fill="#C5C5C5" stroke="none"/>
</svg>
